<svg xmlns="http://www.w3.org/2000/svg" fill="none" viewBox="0 0 60 60">
  <defs>
    <filter id="a" width="66" height="66" x="-3" y="13" color-interpolation-filters="sRGB" filterUnits="userSpaceOnUse">
      <feFlood flood-opacity="0" result="BackgroundImageFix"/>
      <feColorMatrix in="SourceAlpha" result="hardAlpha" values="0 0 0 0 0 0 0 0 0 0 0 0 0 0 0 0 0 0 127 0"/>
      <feOffset dy="8"/>
      <feGaussianBlur stdDeviation="3.667"/>
      <feComposite in2="hardAlpha" k2="-1" k3="1" operator="out"/>
      <feColorMatrix values="0 0 0 0 0.21569 0 0 0 0 0.40784 0 0 0 0 0.55686 0 0 0 0.25 0"/>
      <feBlend in2="BackgroundImageFix" result="effect_dropShadow_1"/>
      <feBlend in="SourceGraphic" in2="effect_dropShadow_1" result="shape"/>
    </filter>
  </defs>
  <g filter="url(#a)">
    <path d="M30 60c12.15 0 22-9.85 22-22s-9.85-22-22-22S8 25.85 8 38s9.85 22 22 22Z"/>
  </g>
  <path d="M52 38c0-12.15-9.85-22-22-22S8 25.85 8 38s9.85 22 22 22 22-9.85 22-22Z"/>
  <path fill="#2196F3" fill-rule="evenodd" d="M30 60c16.569 0 30-13.431 30-30C60 13.431 46.569 0 30 0 13.431 0 0 13.431 0 30c0 16.569 13.431 30 30 30Z"/>
  <path fill="#42A5F5" fill-rule="evenodd" d="M60 30c0 16.569-13.431 30-30 30C13.431 60 0 46.569 0 30 0 13.431 13.431 0 30 0c16.569 0 30 13.431 30 30Zm-5.904-9.981C55.366 23.083 56 26.41 56 30s-.635 6.917-1.904 9.981-3.173 5.865-5.711 8.404c-2.539 2.538-5.34 4.442-8.404 5.711C36.917 55.366 33.59 56 30 56s-6.917-.635-9.981-1.904-5.865-3.173-8.404-5.711c-2.538-2.539-4.442-5.34-5.711-8.404C4.634 36.917 4 33.59 4 30s.635-6.917 1.904-9.981 3.173-5.865 5.711-8.404c2.539-2.538 5.34-4.442 8.404-5.711C23.083 4.634 26.41 4 30 4s6.917.635 9.981 1.904 5.865 3.173 8.404 5.711c2.538 2.539 4.442 5.34 5.711 8.404Z"/>
  <mask id="b" width="60" height="60" x="0" y="0" mask-type="alpha" maskUnits="userSpaceOnUse">
    <path fill="#FFF" fill-rule="evenodd" d="M30 60c16.569 0 30-13.431 30-30C60 13.431 46.569 0 30 0 13.431 0 0 13.431 0 30c0 16.569 13.431 30 30 30Z"/>
  </mask>
  <g stroke="#42A5F5" stroke-width="4" mask="url(#b)">
    <path stroke-linecap="square" d="M2.25 21H57M2.25 36.75H57"/>
    <path stroke-linecap="round" stroke-linejoin="round" d="M29.25 4.5s-9.962 11.578-9.747 26.25C19.72 45.422 29.25 55.5 29.25 55.5m.75-51s9.962 11.578 9.747 26.25C39.53 45.422 30 55.5 30 55.5"/>
  </g>
</svg>
