<svg xmlns="http://www.w3.org/2000/svg" xmlns:xlink="http://www.w3.org/1999/xlink" fill="none" viewBox="0 0 49.181 50.139">
  <defs>
    <path id="b" fill-rule="evenodd" d="M39.742 16.268c-.636-1.102-3.569-1.019-4.587-.955-.23.015-.453.086-.653.202l-6.118 3.532-14.297-9.223a.642.642 0 0 0-.668-.022l-1.273.708a.66.66 0 0 0-.322.444l-.19.984a.69.69 0 0 0 .093.476l7.658 11.829-6.38 3.683-4.362-1.73a.65.65 0 0 0-.808.29l-.24.436a.65.65 0 0 0 .042.695l2.564 3.531c-.65 1.041-1.124 2.097-.814 2.633.31.537 1.465.658 2.695.618l1.79 4.016a.65.65 0 0 0 .58.385l.498.01a.65.65 0 0 0 .655-.555l.687-4.672 6.369-3.677 6.458 12.632a.691.691 0 0 0 .366.318l.947.327a.66.66 0 0 0 .546-.057l1.249-.748a.642.642 0 0 0 .315-.589l-.844-17.1 6.076-3.508c.2-.116.373-.272.5-.464.565-.85 2.105-3.347 1.468-4.449Z" clip-rule="evenodd"/>
    <path id="c" fill="#FFF" fill-rule="evenodd" d="M39.742 16.268c-.636-1.102-3.569-1.019-4.587-.955-.23.015-.453.086-.653.202l-6.118 3.532-14.297-9.223a.642.642 0 0 0-.668-.022l-1.273.708a.66.66 0 0 0-.322.444l-.19.984a.69.69 0 0 0 .093.476l7.658 11.829-6.38 3.683-4.362-1.73a.65.65 0 0 0-.808.29l-.24.436a.65.65 0 0 0 .042.695l2.564 3.531c-.65 1.041-1.124 2.097-.814 2.633.31.537 1.465.658 2.695.618l1.79 4.016a.65.65 0 0 0 .58.385l.498.01a.65.65 0 0 0 .655-.555l.687-4.672 6.369-3.677 6.458 12.632a.691.691 0 0 0 .366.318l.947.327a.66.66 0 0 0 .546-.057l1.249-.748a.642.642 0 0 0 .315-.589l-.844-17.1 6.076-3.508c.2-.116.373-.272.5-.464.565-.85 2.105-3.347 1.468-4.449Z" clip-rule="evenodd" mask="url(#a)"/>
  </defs>
  <mask id="a" fill="#fff">
    <use xlink:href="#b" fill-rule="evenodd" clip-rule="evenodd"/>
  </mask>
  <use xlink:href="#c" fill-rule="evenodd" clip-rule="evenodd" mask="url(#a)"/>
  <mask id="e" width="49.181" height="50.139" x="0" y="0" mask-type="alpha" maskUnits="userSpaceOnUse">
    <mask id="d" fill="#fff">
      <use xlink:href="#b" fill-rule="evenodd" clip-rule="evenodd"/>
    </mask>
    <use xlink:href="#c" fill-rule="evenodd" clip-rule="evenodd" mask="url(#d)"/>
  </mask>
  <g mask="url(#e)">
    <path fill="#EBECF2" d="m28.844 17.271.654 1.134-10.745 6.204-.655-1.134z"/>
    <path d="m28.844 17.271.654 1.134-10.745 6.204-.655-1.134z"/>
  </g>
  <g mask="url(#e)">
    <path fill="#DEE1E3" fill-rule="evenodd" d="M32.227 42.378a.65.65 0 0 0 .315-.589l-.872-17.66-9.236 5.333 6.685 13.076c.076.15.207.263.366.318l.947.327a.65.65 0 0 0 .546-.056l1.249-.749Z"/>
    <path d="m31.67 24.13-9.236 5.332 6.685 13.076a.691.691 0 0 0 .366.318l.947.327a.66.66 0 0 0 .546-.056l1.249-.749a.642.642 0 0 0 .315-.589l-.872-17.66Z"/>
  </g>
  <g mask="url(#e)" opacity=".4">
    <mask id="f" fill="#fff">
      <path fill-rule="evenodd" d="m12.144 34.288-.089.052 1.816 4.075a.65.65 0 0 0 .581.385l.498.01a.65.65 0 0 0 .655-.555l.726-4.934-.463.267a1.627 1.627 0 0 1-.46.18c-.55.123-1.946.414-3.264.52Z" clip-rule="evenodd"/>
    </mask>
    <path fill="#DEE1E3" fill-rule="evenodd" d="m12.144 34.288-.089.052 1.816 4.075a.65.65 0 0 0 .581.385l.498.01a.65.65 0 0 0 .655-.555l.726-4.934-.463.267a1.627 1.627 0 0 1-.46.18c-.55.123-1.946.414-3.264.52Z" clip-rule="evenodd" mask="url(#f)"/>
  </g>
  <g mask="url(#e)">
    <mask id="g" fill="#fff">
      <path fill-rule="evenodd" d="m22.556 29.7 9.13-5.27.099 2.011-7.521 6.6-1.708-3.34Z" clip-rule="evenodd"/>
    </mask>
    <path fill="#C5C6CC" fill-rule="evenodd" d="m22.556 29.7 9.13-5.27.099 2.011-7.521 6.6-1.708-3.34Z" clip-rule="evenodd" mask="url(#g)"/>
  </g>
  <g mask="url(#e)">
    <path fill="#DEE1E3" fill-rule="evenodd" d="m40.79 19.44-29.791 17.2s-.88-1.59-1.612-2.859a1.053 1.053 0 0 1-.025-.047c1.351.098 4.072-.012 6.712-1.535L36.698 20.29c2.292-1.323 2.853-3.037 3.162-3.773.479 1.285.93 2.922.93 2.922Z"/>
    <path d="M10.999 36.64s-.88-1.59-1.612-2.859a1.053 1.053 0 0 1-.025-.047c1.351.098 4.072-.012 6.712-1.535L36.698 20.29c2.292-1.323 2.853-3.037 3.162-3.773.479 1.285.93 2.922.93 2.922l-29.791 17.2Z"/>
  </g>
</svg>
